# Blender 5.1.1
# www.blender.org
mtllib switch_rocker.mtl
o Switch.001
v -0.002500 -0.000994 0.013708
v -0.002500 0.001000 0.013708
v -0.002500 -0.000496 0.013708
v -0.002500 0.000003 0.013708
v -0.002500 0.000501 0.013708
v -0.007231 0.030432 -0.000000
v -0.002498 -0.030430 0.000000
v -0.002500 -0.000994 -0.013708
v -0.002500 0.001000 -0.013708
v -0.002500 -0.000496 -0.013708
v -0.002500 0.000003 -0.013708
v -0.002500 0.000501 -0.013708
v 0.003504 0.001000 -0.000000
v 0.003660 -0.000993 0.000000
v 0.003516 0.000542 -0.000000
v 0.003550 0.000002 -0.000000
v 0.003600 -0.000537 0.000000
v -0.007151 0.029930 0.013708
v -0.007231 0.030432 0.013208
v -0.007208 0.030286 0.013561
v 0.003503 0.029931 0.013208
v 0.003003 0.030431 0.013208
v 0.003001 0.029931 0.013708
v 0.003356 0.030284 0.013208
v 0.003291 0.030219 0.013496
v 0.003002 0.030284 0.013561
v 0.003356 0.029931 0.013561
v -0.002498 -0.030430 0.013208
v -0.002498 -0.029928 0.013708
v -0.002498 -0.030283 0.013561
v 0.008034 -0.028936 0.013208
v 0.007539 -0.028982 0.013708
v 0.007614 -0.029477 0.013208
v 0.007890 -0.028949 0.013561
v 0.007869 -0.029241 0.013496
v 0.007592 -0.029332 0.013561
v 0.007943 -0.029299 0.013208
v 0.003157 -0.000994 0.013708
v 0.003660 -0.000994 0.013208
v 0.003511 -0.000979 0.013561
v 0.003504 0.001000 0.013208
v 0.003003 0.001000 0.013708
v 0.003357 0.001002 0.013561
v 0.003098 -0.000534 0.013708
v 0.003601 -0.000537 0.013208
v 0.003452 -0.000524 0.013561
v 0.003048 0.000002 0.013708
v 0.003550 0.000002 0.013208
v 0.003402 0.000010 0.013561
v 0.003015 0.000539 0.013708
v 0.003516 0.000542 0.013208
v 0.003369 0.000545 0.013561
v -0.007231 0.030432 -0.013208
v -0.007151 0.029930 -0.013708
v -0.007208 0.030286 -0.013561
v 0.003503 0.029931 -0.013208
v 0.003001 0.029931 -0.013708
v 0.003003 0.030431 -0.013208
v 0.003356 0.029931 -0.013561
v 0.003291 0.030219 -0.013496
v 0.003002 0.030284 -0.013561
v 0.003357 0.030284 -0.013208
v 0.003503 0.029931 -0.000000
v 0.003003 0.030431 -0.000000
v 0.003356 0.030284 -0.000000
v -0.002498 -0.029928 -0.013708
v -0.002498 -0.030430 -0.013208
v -0.002498 -0.030283 -0.013561
v 0.008034 -0.028936 -0.013208
v 0.007614 -0.029477 -0.013208
v 0.007539 -0.028982 -0.013708
v 0.007943 -0.029299 -0.013208
v 0.007868 -0.029240 -0.013496
v 0.007586 -0.029333 -0.013561
v 0.007888 -0.028943 -0.013561
v 0.007614 -0.029477 0.000000
v 0.008034 -0.028936 0.000000
v 0.007943 -0.029299 0.000000
v 0.003660 -0.000994 -0.013208
v 0.003157 -0.000994 -0.013708
v 0.003511 -0.000979 -0.013561
v 0.003003 0.001000 -0.013708
v 0.003504 0.001000 -0.013208
v 0.003357 0.001002 -0.013561
v 0.003601 -0.000537 -0.013208
v 0.003098 -0.000534 -0.013708
v 0.003452 -0.000524 -0.013561
v 0.003550 0.000002 -0.013208
v 0.003048 0.000002 -0.013708
v 0.003402 0.000010 -0.013561
v 0.003516 0.000542 -0.013208
v 0.003015 0.000539 -0.013708
v 0.003369 0.000545 -0.013561
vn 0.9938 0.1113 -0.0000
vn 0.9746 0.1094 0.1954
vn 0.9710 0.1394 0.1942
vn 0.9899 0.1420 -0.0000
vn 0.9833 -0.0327 0.1789
vn 0.9990 -0.0452 -0.0000
vn 0.9999 0.0128 -0.0000
vn 0.9808 0.1950 -0.0000
vn 0.9672 0.1794 0.1799
vn 0.9805 0.0129 0.1963
vn 0.0938 -0.9956 -0.0000
vn 0.2907 -0.9568 -0.0000
vn 0.2738 -0.9447 0.1806
vn 0.0921 -0.9769 0.1930
vn -0.0000 -0.0000 1.0000
vn 0.0194 -0.2056 0.9785
vn 0.1965 -0.1520 0.9686
vn 0.1924 0.0274 0.9809
vn 0.9970 0.0777 -0.0000
vn 0.9777 0.0763 0.1957
vn -0.0000 -0.0000 -1.0000
vn -0.0000 0.2136 -0.9769
vn 0.1790 0.1791 -0.9674
vn 0.1930 0.0025 -0.9812
vn 0.9990 0.0442 -0.0000
vn 0.9796 0.0432 0.1961
vn 0.1930 0.0025 0.9812
vn 0.1923 0.0084 0.9813
vn 0.1923 0.0148 0.9812
vn 0.1918 0.0212 0.9812
vn 0.0001 1.0000 -0.0000
vn 0.0001 0.9816 0.1912
vn 0.1795 0.9673 0.1794
vn 0.1951 0.9808 -0.0000
vn 0.9709 0.1397 -0.1944
vn 0.9746 0.1094 -0.1954
vn 0.9830 -0.0329 -0.1805
vn 0.9805 0.0129 -0.1963
vn 0.9672 0.1792 -0.1803
vn 0.0921 -0.9769 -0.1928
vn 0.2748 -0.9442 -0.1814
vn 0.1922 0.0274 -0.9810
vn 0.1977 -0.1528 -0.9683
vn 0.0194 -0.2056 -0.9784
vn 0.9776 0.0764 -0.1959
vn 0.9796 0.0432 -0.1961
vn 0.1923 0.0084 -0.9813
vn 0.1925 0.0148 -0.9812
vn 0.1918 0.0212 -0.9812
vn 0.1795 0.9673 -0.1795
vn 0.0001 0.9816 -0.1912
vn 0.6965 0.6964 0.1730
vn 0.5768 0.5773 0.5779
vn 0.6958 0.1724 0.6973
vn 0.1723 0.6962 0.6969
vn 0.1788 0.1790 0.9675
vn 0.7121 -0.0678 0.6988
vn 0.6423 -0.4991 0.5817
vn 0.7768 -0.6046 0.1761
vn 0.2409 -0.6719 0.7004
vn 0.6956 0.1724 -0.6974
vn 0.5765 0.5771 -0.5785
vn 0.6966 0.6962 -0.1732
vn 0.1727 0.6962 -0.6968
vn 0.7768 -0.6038 -0.1789
vn 0.6407 -0.4974 -0.5849
vn 0.7114 -0.0656 -0.6997
vn 0.2391 -0.6721 -0.7007
vn 0.7072 0.7070 -0.0000
vn 0.0001 0.7266 0.6871
vn -0.0000 0.2136 0.9769
vn 0.7895 -0.6137 -0.0000
vn 0.0675 -0.7155 0.6954
vn 0.7047 0.0090 0.7094
vn 0.7035 0.0308 0.7100
vn 0.7027 0.0544 0.7094
vn 0.7008 0.0778 0.7091
vn 0.6997 0.0999 0.7075
vn 0.0001 0.7266 -0.6871
vn 0.0675 -0.7155 -0.6954
vn 0.7047 0.0090 -0.7094
vn 0.7035 0.0308 -0.7100
vn 0.7027 0.0544 -0.7094
vn 0.7011 0.0780 -0.7088
vn 0.6995 0.0999 -0.7076
vt 0.454275 0.871911
vt 0.454368 0.806026
vt 0.456782 0.806078
vt 0.456643 0.871911
vt 0.597416 0.806315
vt 0.597369 0.871898
vt 0.446372 0.871912
vt 0.302505 0.871924
vt 0.302449 0.806374
vt 0.446225 0.806121
vt 0.651553 0.871893
vt 0.601102 0.871898
vt 0.601098 0.806310
vt 0.651541 0.806299
vt 0.453032 0.774269
vt 0.594446 0.752859
vt 0.597247 0.802687
vt 0.456723 0.802010
vt 0.451502 0.871911
vt 0.451500 0.806017
vt 0.445237 0.968932
vt 0.302249 0.991262
vt 0.302473 0.941123
vt 0.445866 0.941739
vt 0.448731 0.871911
vt 0.448635 0.806052
vt 0.445854 0.802084
vt 0.445221 0.774891
vt 0.447184 0.774868
vt 0.448379 0.801962
vt 0.449136 0.774755
vt 0.451271 0.801914
vt 0.451084 0.774555
vt 0.454172 0.801921
vt 0.247883 0.871928
vt 0.247884 0.806367
vt 0.298685 0.806370
vt 0.298691 0.871924
vt 0.456794 0.937742
vt 0.454379 0.937796
vt 0.597427 0.937481
vt 0.446236 0.937702
vt 0.302461 0.937473
vt 0.651553 0.937488
vt 0.601110 0.937486
vt 0.453049 0.969553
vt 0.456735 0.941812
vt 0.597258 0.941111
vt 0.594466 0.990939
vt 0.451511 0.937805
vt 0.448647 0.937771
vt 0.448391 0.941861
vt 0.447200 0.968955
vt 0.451283 0.941908
vt 0.449153 0.969068
vt 0.454184 0.941901
vt 0.451101 0.969267
vt 0.298694 0.937478
vt 0.247894 0.937489
vt 0.300579 0.806305
vt 0.300883 0.804803
vt 0.302389 0.804551
vt 0.298750 0.804475
vt 0.300294 0.804763
vt 0.302461 0.802725
vt 0.300893 0.804294
vt 0.300597 0.802798
vt 0.597429 0.804495
vt 0.598917 0.804742
vt 0.599246 0.806243
vt 0.599116 0.802742
vt 0.598908 0.804228
vt 0.599546 0.804698
vt 0.601067 0.804413
vt 0.302401 0.939299
vt 0.300895 0.939046
vt 0.300590 0.937543
vt 0.300609 0.941050
vt 0.300905 0.939554
vt 0.300304 0.939086
vt 0.298760 0.939373
vt 0.599256 0.937554
vt 0.598923 0.939058
vt 0.597409 0.939303
vt 0.601110 0.939384
vt 0.599563 0.939102
vt 0.598912 0.939574
vt 0.599128 0.941085
vt 0.300598 0.871924
vt 0.248001 0.804465
vt 0.300325 0.752312
vt 0.302228 0.752585
vt 0.599235 0.871898
vt 0.596330 0.752589
vt 0.651471 0.804395
vt 0.446051 0.804121
vt 0.448507 0.804012
vt 0.451387 0.803967
vt 0.454273 0.803978
vt 0.456743 0.804063
vt 0.300345 0.991535
vt 0.248011 0.939391
vt 0.651484 0.939391
vt 0.596351 0.991209
vt 0.446063 0.939702
vt 0.448519 0.939811
vt 0.451399 0.939856
vt 0.454285 0.939844
vt 0.456755 0.939758
s 1
usemtl lightswitch.001
f 17/1/1 45/2/2 39/3/3 14/4/4
f 14/4/4 39/3/3 31/5/5 77/6/6
f 13/7/7 63/8/8 21/9/9 41/10/10
f 7/11/11 76/12/12 33/13/13 28/14/14
f 1/15/15 29/16/16 32/17/17 38/18/18
f 16/19/19 48/20/20 45/2/2 17/1/1
f 9/21/21 54/22/22 57/23/23 82/24/24
f 15/25/25 51/26/26 48/20/20 16/19/19
f 13/7/7 41/10/10 51/26/26 15/25/25
f 42/27/27 2/28/15 5/29/15 50/30/28
f 50/30/28 5/29/15 4/31/15 47/32/29
f 47/32/29 4/31/15 3/33/15 44/34/30
f 44/34/30 3/33/15 1/15/15 38/18/18
f 6/35/31 19/36/32 22/37/33 64/38/34
f 17/1/1 14/4/4 79/39/35 85/40/36
f 14/4/4 77/6/6 69/41/37 79/39/35
f 13/7/7 83/42/38 56/43/39 63/8/8
f 7/11/11 67/44/40 70/45/41 76/12/12
f 8/46/21 80/47/42 71/48/43 66/49/44
f 16/19/19 17/1/1 85/40/36 88/50/45
f 15/25/25 16/19/19 88/50/45 91/51/46
f 13/7/7 15/25/25 91/51/46 83/42/38
f 82/24/24 92/52/47 12/53/21 9/21/21
f 92/52/47 89/54/48 11/55/21 12/53/21
f 89/54/48 86/56/49 10/57/21 11/55/21
f 86/56/49 80/47/42 8/46/21 10/57/21
f 6/35/31 64/38/34 58/58/50 53/59/51
f 21/9/9 24/60/52 25/61/53 27/62/54
f 22/37/33 26/63/55 25/64/53 24/60/52
f 23/65/56 27/62/54 25/66/53 26/67/55
f 31/5/5 34/68/57 35/69/58 37/70/59
f 32/17/17 36/71/60 35/72/58 34/68/57
f 33/13/13 37/70/59 35/73/58 36/74/60
f 56/43/39 59/75/61 60/76/62 62/77/63
f 57/23/23 61/78/64 60/79/62 59/75/61
f 58/58/50 62/77/63 60/80/62 61/81/64
f 69/41/37 72/82/65 73/83/66 75/84/67
f 70/45/41 74/85/68 73/86/66 72/82/65
f 71/48/43 75/84/67 73/87/66 74/88/68
f 64/38/34 22/37/33 24/60/52 65/89/69
f 65/89/69 24/60/52 21/9/9 63/8/8
f 22/37/33 19/36/32 20/90/70 26/63/55
f 26/67/55 20/91/70 18/92/71 23/65/56
f 77/6/6 31/5/5 37/70/59 78/93/72
f 78/93/72 37/70/59 33/13/13 76/12/12
f 32/17/17 29/16/16 30/94/73 36/71/60
f 36/74/60 30/95/73 28/14/14 33/13/13
f 51/26/26 41/10/10 43/96/74 52/97/75
f 52/97/75 43/96/74 42/27/27 50/30/28
f 48/20/20 51/26/26 52/97/75 49/98/76
f 49/98/76 52/97/75 50/30/28 47/32/29
f 45/2/2 48/20/20 49/98/76 46/99/77
f 46/99/77 49/98/76 47/32/29 44/34/30
f 39/3/3 45/2/2 46/99/77 40/100/78
f 40/100/78 46/99/77 44/34/30 38/18/18
f 41/10/10 21/9/9 27/62/54 43/96/74
f 43/96/74 27/62/54 23/65/56 42/27/27
f 31/5/5 39/3/3 40/100/78 34/68/57
f 34/68/57 40/100/78 38/18/18 32/17/17
f 63/8/8 56/43/39 62/77/63 65/89/69
f 65/89/69 62/77/63 58/58/50 64/38/34
f 57/23/23 54/22/22 55/101/79 61/78/64
f 61/81/64 55/102/79 53/59/51 58/58/50
f 76/12/12 70/45/41 72/82/65 78/93/72
f 78/93/72 72/82/65 69/41/37 77/6/6
f 70/45/41 67/44/40 68/103/80 74/85/68
f 74/88/68 68/104/80 66/49/44 71/48/43
f 92/52/47 82/24/24 84/105/81 93/106/82
f 93/106/82 84/105/81 83/42/38 91/51/46
f 89/54/48 92/52/47 93/106/82 90/107/83
f 90/107/83 93/106/82 91/51/46 88/50/45
f 86/56/49 89/54/48 90/107/83 87/108/84
f 87/108/84 90/107/83 88/50/45 85/40/36
f 80/47/42 86/56/49 87/108/84 81/109/85
f 81/109/85 87/108/84 85/40/36 79/39/35
f 82/24/24 57/23/23 59/75/61 84/105/81
f 84/105/81 59/75/61 56/43/39 83/42/38
f 71/48/43 80/47/42 81/109/85 75/84/67
f 75/84/67 81/109/85 79/39/35 69/41/37
f 2/28/15 42/27/27 23/65/56 18/92/71
